<svg width="25" height="25" viewBox="0 0 25 25" fill="none"
    xmlns="http://www.w3.org/2000/svg">
    <g opacity="0.9">
        <circle cx="12.0112" cy="12.0112" r="12.0112" fill="#FFC122"></circle>
        <path
            d="M16.8188 11.9452C16.5177 11.556 16.0635 11.2886 15.456 11.1433C16.2296 10.7487 16.5695 10.079 16.4762 9.13407C16.445 8.79142 16.3503 8.49446 16.1919 8.24275C16.0334 7.99098 15.8194 7.78857 15.5493 7.63546C15.2794 7.48215 14.9859 7.36544 14.6693 7.28498C14.3527 7.20452 13.9893 7.1461 13.5791 7.1098V5.14746H12.38V7.05528C12.1724 7.05528 11.8557 7.06046 11.4301 7.07085V5.14746H10.2309V7.1098C10.0595 7.11501 9.80774 7.11765 9.47551 7.11765L7.82471 7.1098V8.38689H8.689C9.08356 8.38689 9.31457 8.56344 9.38205 8.9164V11.1513C9.43403 11.1513 9.47551 11.154 9.50669 11.1592H9.38205V14.2894C9.34056 14.5541 9.19003 14.6866 8.93044 14.6866H8.06619L7.82476 16.1116H9.38218C9.48083 16.1116 9.62351 16.113 9.81047 16.1153C9.99733 16.1179 10.1374 16.1192 10.2309 16.1192V18.1049H11.4303V16.1426C11.6483 16.1479 11.965 16.1504 12.3803 16.1504V18.1049H13.5794V16.1192C14.0052 16.0985 14.3828 16.0598 14.7123 16.0025C15.042 15.9452 15.3574 15.8558 15.6585 15.7337C15.9595 15.6118 16.2112 15.4598 16.4136 15.2781C16.6162 15.0966 16.7835 14.8655 16.9161 14.5851C17.0482 14.3047 17.1327 13.9802 17.1689 13.6116C17.2367 12.8902 17.1198 12.3346 16.8188 11.9452ZM11.4534 8.47231C11.4898 8.47231 11.5923 8.47101 11.761 8.46839C11.9298 8.46571 12.0699 8.46315 12.1815 8.46053C12.2932 8.45797 12.4437 8.46446 12.6333 8.48003C12.8228 8.49561 12.9824 8.51642 13.1121 8.54233C13.2419 8.56824 13.3847 8.61109 13.5403 8.67079C13.6962 8.73044 13.8207 8.80315 13.9141 8.88879C14.0076 8.97444 14.0867 9.08351 14.1515 9.2159C14.2165 9.34826 14.2489 9.50009 14.2489 9.67138C14.2489 9.81675 14.2256 9.94917 14.179 10.0686C14.1324 10.188 14.0621 10.288 13.9688 10.3684C13.8754 10.4489 13.7792 10.5191 13.6805 10.5787C13.582 10.6384 13.456 10.6864 13.3029 10.7227C13.1498 10.7591 13.0162 10.7876 12.902 10.8084C12.7878 10.8291 12.6451 10.8435 12.4737 10.8512C12.3024 10.859 12.1725 10.8642 12.0843 10.8668C11.996 10.8694 11.8754 10.8694 11.7222 10.8668C11.569 10.8642 11.4795 10.8629 11.4535 10.8629V8.47229H11.4534V8.47231ZM14.728 13.7752C14.6785 13.8946 14.615 13.9985 14.5372 14.0869C14.4593 14.1749 14.3567 14.2529 14.2296 14.3203C14.1025 14.3879 13.9791 14.4423 13.8598 14.4838C13.7403 14.5255 13.5962 14.5617 13.4276 14.5929C13.2587 14.6241 13.1108 14.646 12.9835 14.6591C12.8564 14.6721 12.7046 14.6824 12.528 14.6903C12.3516 14.6979 12.2139 14.7019 12.1153 14.7019C12.0167 14.7019 11.8921 14.7005 11.7415 14.6979C11.5909 14.6955 11.4949 14.6942 11.4534 14.6942V12.0621C11.4949 12.0621 11.6182 12.0595 11.8233 12.0543C12.0284 12.049 12.1957 12.0466 12.3255 12.0466C12.4553 12.0466 12.6345 12.0543 12.863 12.0699C13.0912 12.0854 13.2833 12.1087 13.4392 12.1398C13.5949 12.171 13.7648 12.219 13.9492 12.2839C14.1335 12.3488 14.2828 12.4279 14.397 12.5214C14.5113 12.615 14.6072 12.7342 14.6851 12.8796C14.7631 13.0249 14.802 13.1911 14.802 13.378C14.802 13.5235 14.7774 13.6557 14.728 13.7752Z"
            fill="white"></path>
    </g>
</svg>