<svg width="24px" height="24px" viewBox="0 0 24 24"
    xmlns="http://www.w3.org/2000/svg" xmlns:xlink="http://www.w3.org/1999/xlink">
    <g id="Design" stroke="none" stroke-width="1" fill="none" fill-rule="evenodd">
        <g id="Icon/Currency/BYN-2">
            <g id="BYN">
                <circle id="Oval-Copy-3" fill="#FFFFFF" cx="12" cy="12" r="12"></circle>
                <path
                    d="M23.6221839,14.9990814 C22.2903751,20.1752291 17.5918491,24 12,24 C9.81407147,24 7.76465455,23.4155243 5.99950175,22.3943254 L6,15 Z"
                    id="Combined-Shape" fill="#00A749"></path>
                <path
                    d="M4.64946619,20.1111111 L4.64946619,20.4391534 L4.8202847,20.4391534 L4.8202847,20.8306878 L5.0658363,20.8306878 L5.0658363,21.1957672 L5.36476868,21.1957672 L5.36476868,21.6137566 L5.57829181,21.6137566 L5.57829181,21.957672 L6,21.957672 L5.99994078,22.3945794 C5.57334449,22.1478035 5.1633498,21.8755203 4.77204216,21.5798153 L4.77224199,21.5608466 L4.74821535,21.5617633 C4.68630267,21.514735 4.62486068,21.4671192 4.56389769,21.4189242 L4.56405694,21.2433862 L4.3477299,21.2439414 C4.18693664,21.110685 4.02967723,20.9733135 3.87611313,20.8319884 L4.07829181,20.8306878 L4.07829181,20.4391534 L4.24911032,20.4391534 L4.24911032,20.1111111 L4.64946619,20.1111111 Z M6,20.7037037 L6,21.2169312 L5.57829181,21.2169312 L5.57829181,20.7037037 L6,20.7037037 Z M5.32206406,18.4126984 L5.32206406,18.7724868 L5.57829181,18.7724868 L5.57829181,19.1481481 L6,19.1481481 L6,19.6349206 L5.57829181,19.6349206 L5.57829181,20.005291 L5.32206406,20.005291 L5.32206406,20.3650794 L5.02846975,20.3650794 L5.02846975,20.005291 L4.77224199,20.005291 L4.77224199,19.6349206 L4.55871886,19.6349206 L4.55871886,19.1481481 L4.77224199,19.1481481 L4.77224199,18.7724868 L5.02846975,18.7724868 L5.02846975,18.4126984 L5.32206406,18.4126984 Z M2.42348754,18.4126984 L2.42348754,18.7724868 L2.6797153,18.7724868 L2.6797153,19.1481481 L3.3202847,19.1481481 L3.3202847,18.7724868 L3.57651246,18.7724868 L3.57651246,18.4126984 L3.87544484,18.4126984 L3.87544484,18.7724868 L4.1316726,18.7724868 L4.1316726,19.1481481 L4.34519573,19.1481481 L4.34519573,19.6349206 L4.1316726,19.6349206 L4.1316726,20.005291 L3.87544484,20.005291 L3.87544484,20.3650794 L3.57651246,20.3650794 L3.57651246,20.005291 L3.3202847,20.005291 L3.3202847,19.6349206 L2.74239157,19.635749 C2.62008645,19.4876349 2.50126724,19.336536 2.38605955,19.1825779 L2.386121,19.1640212 L2.37258237,19.1645325 C2.27666362,19.0358503 2.18326403,18.9051799 2.09245662,18.7725942 L2.12455516,18.7724868 L2.12455516,18.4126984 L2.42348754,18.4126984 Z M3.83274021,19.1640212 L3.613879,19.1640212 L3.613879,19.6243386 L3.83274021,19.6243386 L3.83274021,19.1640212 Z M5.27935943,19.1640212 L5.06049822,19.1640212 L5.06049822,19.6243386 L5.27935943,19.6243386 L5.27935943,19.1640212 Z M1.95907473,5.60846561 L1.95907473,5.85714286 L2.17259786,5.85714286 L2.17259786,6.23280423 L2.38078292,6.23280423 L2.38078292,6.61375661 L2.55160142,6.61375661 L2.55160142,6.94179894 L2.72241993,6.94179894 L2.72241993,7.22751323 L3.27758007,7.22751323 L3.27758007,6.94179894 L3.44839858,6.94179894 L3.44839858,6.61375661 L3.61921708,6.61375661 L3.61921708,6.23280423 L3.82740214,6.23280423 L3.82740214,5.85714286 L4.04092527,5.85714286 L4.04092527,5.60846561 L4.29181495,5.60846561 L4.29181495,5.23280423 L4.59608541,5.23280423 L4.59608541,5.60846561 L4.84697509,5.60846561 L4.84697509,5.85714286 L5.05516014,5.85714286 L5.05516014,6.23280423 L5.26868327,6.23280423 L5.26868327,6.61375661 L5.41814947,6.61375661 L5.41814947,6.94708995 L5.57829181,6.94708995 L5.57829181,7.38095238 L6,7.38095238 L6,8.05291005 L5.63701068,8.05291005 L5.63701068,8.40740741 L5.47686833,8.40740741 L5.47686833,8.84126984 L5.21530249,8.84126984 L5.21530249,9.22222222 L4.90035587,9.22222222 L4.90035587,8.84126984 L4.64946619,8.84126984 L4.64946619,8.40740741 L4.43594306,8.40740741 L4.43594306,8.05291005 L4.75622776,8.05291005 L4.75622776,7.66137566 L4.20106762,7.66137566 L4.20106762,7.93121693 L3.87010676,7.93121693 L3.87010676,8.38095238 L3.5658363,8.38095238 L3.5658363,8.87830688 L3.79537367,8.87830688 L3.79537367,9.24867725 L3.96619217,9.24867725 L3.96619217,9.60846561 L4.14234875,9.60846561 L4.14234875,9.96296296 L4.38256228,9.96296296 L4.38256228,10.2962963 L4.56405694,10.2962963 L4.56405694,10.5767196 L4.81494662,10.5767196 L4.81494662,10.957672 L5.15658363,10.957672 L5.15658363,10.5343915 L5.39679715,10.5343915 L5.39679715,10.1798942 L5.57829181,10.1798942 L5.57829181,9.93650794 L6,9.93650794 L6,10.7830688 L5.57829181,10.7830688 L5.57829181,11.1481481 L5.39679715,11.1481481 L5.39679715,11.3756614 L5.15658363,11.3756614 L5.15658363,11.7513228 L4.97508897,11.7513228 L4.97508897,12.2486772 L5.15658363,12.2486772 L5.15658363,12.6243386 L5.39679715,12.6243386 L5.39679715,12.8518519 L5.57829181,12.8518519 L5.57829181,13.2169312 L6,13.2169312 L6,14.0634921 L5.57829181,14.0634921 L5.57829181,13.8201058 L5.39679715,13.8201058 L5.39679715,13.4656085 L5.15658363,13.4656085 L5.15658363,13.042328 L4.81494662,13.042328 L4.81494662,13.4232804 L4.56405694,13.4232804 L4.56405694,13.7037037 L4.38256228,13.7037037 L4.38256228,14.037037 L4.14234875,14.037037 L4.14234875,14.3915344 L3.96619217,14.3915344 L3.96619217,14.7513228 L3.79537367,14.7513228 L3.79537367,15.1216931 L3.5658363,15.1216931 L3.5658363,15.6190476 L3.87010676,15.6190476 L3.87010676,16.0687831 L4.20106762,16.0687831 L4.20106762,16.3386243 L4.75622776,16.3386243 L4.75622776,15.9470899 L4.43594306,15.9470899 L4.43594306,15.5925926 L4.64946619,15.5925926 L4.64946619,15.1587302 L4.90035587,15.1587302 L4.90035587,14.7777778 L5.21530249,14.7777778 L5.21530249,15.1587302 L5.47686833,15.1587302 L5.47686833,15.5925926 L5.63701068,15.5925926 L5.63701068,15.9470899 L6,15.9470899 L6,16.6190476 L5.57829181,16.6190476 L5.57829181,17.0529101 L5.41814947,17.0529101 L5.41814947,17.3862434 L5.26868327,17.3862434 L5.26868327,17.7671958 L5.05516014,17.7671958 L5.05516014,18.1428571 L4.84697509,18.1428571 L4.84697509,18.3915344 L4.59608541,18.3915344 L4.59608541,18.7671958 L4.29181495,18.7671958 L4.29181495,18.3915344 L4.04092527,18.3915344 L4.04092527,18.1428571 L3.82740214,18.1428571 L3.82740214,17.7671958 L3.61921708,17.7671958 L3.61921708,17.3862434 L3.44839858,17.3862434 L3.44839858,17.0582011 L3.27758007,17.0582011 L3.27758007,16.7724868 L2.72241993,16.7724868 L2.72241993,17.0582011 L2.55160142,17.0582011 L2.55160142,17.3862434 L2.38078292,17.3862434 L2.38078292,17.7671958 L2.17259786,17.7671958 L2.17259786,18.1428571 L1.95907473,18.1428571 L1.95907473,18.3915344 L1.84197529,18.3915672 C1.28281587,17.5047687 0.836571833,16.539636 0.523428895,15.5163547 L0.523131673,15.1587302 L0.784697509,15.1587302 L0.784697509,14.7777778 L1.09964413,14.7777778 L1.09964413,15.1587302 L1.35053381,15.1587302 L1.35053381,15.5925926 L1.56405694,15.5925926 L1.56405694,15.9470899 L1.24377224,15.9470899 L1.24377224,16.3386243 L1.79893238,16.3386243 L1.79893238,16.0687831 L2.12989324,16.0687831 L2.12989324,15.6190476 L2.4341637,15.6190476 L2.4341637,15.1216931 L2.20462633,15.1216931 L2.20462633,14.7513228 L2.03380783,14.7513228 L2.03380783,14.3915344 L1.85765125,14.3915344 L1.85765125,14.037037 L1.61743772,14.037037 L1.61743772,13.7037037 L1.43594306,13.7037037 L1.43594306,13.4232804 L1.18505338,13.4232804 L1.18505338,13.042328 L0.84341637,13.042328 L0.84341637,13.4656085 L0.603202847,13.4656085 L0.603202847,13.8201058 L0.421708185,13.8201058 L0.421708185,14.0634921 L0.176733999,14.0634305 C0.128408104,13.7845809 0.0897066874,13.5024318 0.0609843487,13.2173377 L0.421708185,13.2169312 L0.421708185,12.8518519 L0.603202847,12.8518519 L0.603202847,12.6243386 L0.84341637,12.6243386 L0.84341637,12.2486772 L1.02491103,12.2486772 L1.02491103,11.7513228 L0.84341637,11.7513228 L0.84341637,11.3756614 L0.603202847,11.3756614 L0.603202847,11.1481481 L0.421708185,11.1481481 L0.421708185,10.7830688 L0.0609843487,10.7826623 C0.0897100792,10.4975345 0.128417245,10.2153524 0.17675112,9.93647069 L0.421708185,9.93650794 L0.421708185,10.1798942 L0.603202847,10.1798942 L0.603202847,10.5343915 L0.84341637,10.5343915 L0.84341637,10.957672 L1.18505338,10.957672 L1.18505338,10.5767196 L1.43594306,10.5767196 L1.43594306,10.2962963 L1.61743772,10.2962963 L1.61743772,9.96296296 L1.85765125,9.96296296 L1.85765125,9.60846561 L2.03380783,9.60846561 L2.03380783,9.24867725 L2.20462633,9.24867725 L2.20462633,8.87830688 L2.4341637,8.87830688 L2.4341637,8.38095238 L2.12989324,8.38095238 L2.12989324,7.93121693 L1.79893238,7.93121693 L1.79893238,7.66137566 L1.24377224,7.66137566 L1.24377224,8.05291005 L1.56405694,8.05291005 L1.56405694,8.40740741 L1.35053381,8.40740741 L1.35053381,8.84126984 L1.09964413,8.84126984 L1.09964413,9.22222222 L0.784697509,9.22222222 L0.784697509,8.84126984 L0.523131673,8.84126984 L0.523428895,8.48364527 C0.836571833,7.46036405 1.28281587,6.49523133 1.84197529,5.60843285 L1.95907473,5.60846561 Z M3.23487544,17.6931217 L3.23487544,18.4179894 L2.76512456,18.4179894 L2.76512456,17.6931217 L3.23487544,17.6931217 Z M6,17.7671958 L6,18.2804233 L5.57829181,18.2804233 L5.57829181,17.7671958 L6,17.7671958 Z M6,14.6825397 L6,15.1957672 L5.57829181,15.1957672 L5.57829181,14.6825397 L6,14.6825397 Z M3.31494662,9.32804233 L2.68505338,9.32804233 L2.68505338,9.68253968 L2.59430605,9.68253968 L2.59430605,10.0529101 L2.3594306,10.0529101 L2.3594306,10.4126984 L2.21530249,10.4126984 L2.21530249,10.6772487 L2.0658363,10.6772487 L2.0658363,10.957672 L1.80960854,10.957672 L1.80960854,11.2328042 L1.44128114,11.2328042 L1.44128114,12.7671958 L1.80960854,12.7671958 L1.80960854,13.042328 L2.0658363,13.042328 L2.0658363,13.3227513 L2.21530249,13.3227513 L2.21530249,13.5873016 L2.3594306,13.5873016 L2.3594306,13.9470899 L2.59430605,13.9470899 L2.59430605,14.3174603 L2.68505338,14.3174603 L2.68505338,14.6719577 L3.31494662,14.6719577 L3.31494662,14.3174603 L3.40569395,14.3174603 L3.40569395,13.9470899 L3.6405694,13.9470899 L3.6405694,13.5873016 L3.78469751,13.5873016 L3.78469751,13.3227513 L3.9341637,13.3227513 L3.9341637,13.042328 L4.19039146,13.042328 L4.19039146,12.7671958 L4.55871886,12.7671958 L4.55871886,11.2328042 L4.19039146,11.2328042 L4.19039146,10.957672 L3.9341637,10.957672 L3.9341637,10.6772487 L3.78469751,10.6772487 L3.78469751,10.4126984 L3.6405694,10.4126984 L3.6405694,10.0529101 L3.40569395,10.0529101 L3.40569395,9.68253968 L3.31494662,9.68253968 L3.31494662,9.32804233 Z M2.98932384,13.4285714 L2.98932384,13.8941799 L2.76512456,13.8941799 L2.76512456,13.4285714 L2.98932384,13.4285714 Z M3.23487544,13.4285714 L3.23487544,13.8941799 L3.01067616,13.8941799 L3.01067616,13.4285714 L3.23487544,13.4285714 Z M2.6797153,12 L2.98932384,12.005291 L2.98932384,12.5238095 L2.7544484,12.5238095 L2.7544484,12.9259259 L2.54092527,12.9259259 L2.54092527,13.2010582 L2.33807829,13.2010582 L2.33807829,12.5185185 L2.54092527,12.5185185 L2.54092527,12.2910053 L2.6797153,12.2910053 L2.6797153,12 Z M3.3202847,12 L3.3202847,12.2910053 L3.45907473,12.2910053 L3.45907473,12.5185185 L3.66192171,12.5185185 L3.66192171,13.2010582 L3.45907473,13.2010582 L3.45907473,12.9259259 L3.2455516,12.9259259 L3.2455516,12.5238095 L3.01067616,12.5238095 L3.01067616,12.005291 L3.3202847,12 Z M2.54092527,10.7989418 L2.54092527,11.0740741 L2.7544484,11.0740741 L2.7544484,11.4761905 L2.98932384,11.4761905 L2.98932384,11.994709 L2.6797153,12 L2.6797153,11.7089947 L2.54092527,11.7089947 L2.54092527,11.4814815 L2.33807829,11.4814815 L2.33807829,10.7989418 L2.54092527,10.7989418 Z M3.66192171,10.7989418 L3.66192171,11.4814815 L3.45907473,11.4814815 L3.45907473,11.7089947 L3.3202847,11.7089947 L3.3202847,12 L3.01067616,11.994709 L3.01067616,11.4761905 L3.2455516,11.4761905 L3.2455516,11.0740741 L3.45907473,11.0740741 L3.45907473,10.7989418 L3.66192171,10.7989418 Z M3.23487544,10.1058201 L3.23487544,10.5714286 L3.01067616,10.5714286 L3.01067616,10.1058201 L3.23487544,10.1058201 Z M2.98932384,10.1058201 L2.98932384,10.5714286 L2.76512456,10.5714286 L2.76512456,10.1058201 L2.98932384,10.1058201 Z M6,8.8042328 L6,9.31746032 L5.57829181,9.31746032 L5.57829181,8.8042328 L6,8.8042328 Z M3.23487544,5.58201058 L3.23487544,6.30687831 L2.76512456,6.30687831 L2.76512456,5.58201058 L3.23487544,5.58201058 Z M6,5.71957672 L6,6.23280423 L5.57829181,6.23280423 L5.57829181,5.71957672 L6,5.71957672 Z M5.32206406,3.63492063 L5.32206406,3.99470899 L5.57829181,3.99470899 L5.57829181,4.36507937 L6,4.36507937 L6,4.85185185 L5.57829181,4.85185185 L5.57829181,5.22751323 L5.32206406,5.22751323 L5.32206406,5.58730159 L5.02846975,5.58730159 L5.02846975,5.22751323 L4.77224199,5.22751323 L4.77224199,4.85185185 L4.55871886,4.85185185 L4.55871886,4.36507937 L4.77224199,4.36507937 L4.77224199,3.99470899 L5.02846975,3.99470899 L5.02846975,3.63492063 L5.32206406,3.63492063 Z M3.87544484,3.63492063 L3.87544484,3.99470899 L4.1316726,3.99470899 L4.1316726,4.36507937 L4.34519573,4.36507937 L4.34519573,4.85185185 L4.1316726,4.85185185 L4.1316726,5.22751323 L3.87544484,5.22751323 L3.87544484,5.58730159 L3.57651246,5.58730159 L3.57651246,5.22751323 L3.3202847,5.22751323 L3.3202847,4.85185185 L2.6797153,4.85185185 L2.6797153,5.22751323 L2.42348754,5.22751323 L2.42348754,5.58730159 L2.12455516,5.58730159 L2.12455516,5.22751323 L2.0928971,5.22676274 C2.18356605,5.09439759 2.27681871,4.96394161 2.37258237,4.83546747 L2.386121,4.83597884 L2.38605955,4.81742206 C2.5011508,4.66361955 2.61984628,4.51267048 2.74202075,4.3647001 L3.3202847,4.36507937 L3.3202847,3.99470899 L3.57651246,3.99470899 L3.57651246,3.63492063 L3.87544484,3.63492063 Z M5.27935943,4.37566138 L5.06049822,4.37566138 L5.06049822,4.83597884 L5.27935943,4.83597884 L5.27935943,4.37566138 Z M3.83274021,4.37566138 L3.613879,4.37566138 L3.613879,4.83597884 L3.83274021,4.83597884 L3.83274021,4.37566138 Z M5.99994078,1.6054206 L6,2.04232804 L5.57829181,2.04232804 L5.57829181,2.38624339 L5.36476868,2.38624339 L5.36476868,2.8042328 L5.0658363,2.8042328 L5.0658363,3.16931217 L4.8202847,3.16931217 L4.8202847,3.56084656 L4.64946619,3.56084656 L4.64946619,3.88888889 L4.24911032,3.88888889 L4.24911032,3.56084656 L4.07829181,3.56084656 L4.07829181,3.16931217 L3.87511972,3.16892597 C4.02931651,3.0269867 4.18724025,2.88903421 4.34872742,2.75523198 L4.56405694,2.75661376 L4.56389769,2.58107581 C4.62486068,2.53288078 4.68630267,2.48526498 4.74821535,2.43823674 L4.77224199,2.43915344 L4.77204216,2.42018471 C5.1633498,2.12447967 5.57334449,1.85219648 5.99994078,1.6054206 Z M6,2.78306878 L6,3.2962963 L5.57829181,3.2962963 L5.57829181,2.78306878 L6,2.78306878 Z"
                    id="Combined-Shape" fill="#EF1F1D"></path>
                <path
                    d="M12,0 C18.627417,0 24,5.372583 24,12 C24,13.0362344 23.8686559,14.0417918 23.6217076,15.0009322 L6,15 L5.99950175,1.60567458 C7.76465455,0.584475696 9.81407147,0 12,0 Z"
                    id="Combined-Shape" fill="#EF1F1D"></path>
            </g>
        </g>
    </g>
</svg>