<svg width="24px" height="24px" viewBox="0 0 24 24"
    xmlns="http://www.w3.org/2000/svg" xmlns:xlink="http://www.w3.org/1999/xlink">
    <g id="Design" stroke="none" stroke-width="1" fill="none" fill-rule="evenodd">
        <g id="Exchange-form-specification" transform="translate(-908.000000, -1127.000000)">
            <g id="Exchange-form-Copy-4" transform="translate(598.000000, 967.000000)">
                <g id="Selector" transform="translate(294.000000, 140.000000)">
                    <g id="EUR" transform="translate(0.000000, 8.000000)">
                        <g id="Icon/Currency/EUR" transform="translate(16.000000, 12.000000)">
                            <g id="BYN">
                                <circle id="Oval" fill="#14148B" cx="12" cy="12" r="12"></circle>
                                <g id="Stars" transform="translate(2.250000, 2.250000)"
                                    fill="#F8D12E"
                                    fill-rule="nonzero">
                                    <polygon id="Path"
                                        points="9.74334177 0.00379746835 10.0358481 0.903949367 10.9825823 0.903949367 10.2167089 1.46025316 10.5092152 2.36040506 9.74334177 1.80374684 8.97762025 2.36040506 9.27017722 1.46025316 8.50405063 0.903949367 9.45078481 0.903949367">
                                    </polygon>
                                    <polygon id="Path"
                                        points="9.74334177 16.9968101 10.0358481 17.8973671 10.9825823 17.8973671 10.2167089 18.4536709 10.5092152 19.3537722 9.74334177 18.797519 8.97762025 19.3537722 9.27017722 18.4536709 8.50405063 17.8973671 9.45078481 17.8973671">
                                    </polygon>
                                    <polygon id="Path"
                                        points="14.4070886 1.50987342 14.699443 2.41022785 15.6461772 2.41022785 14.8802532 2.96688608 15.1728101 3.86703797 14.4070886 3.31037975 13.6412152 3.86703797 13.9337215 2.96688608 13.168 2.41022785 14.1147342 2.41022785">
                                    </polygon>
                                    <polygon id="Path"
                                        points="17.5890633 4.64921519 17.8814177 5.54936709 18.8281519 5.54936709 18.0622278 6.10587342 18.3547848 7.00602532 17.5890633 6.44972152 16.8231392 7.00602532 17.1156962 6.10587342 16.3497722 5.54936709 17.2963038 5.54936709">
                                    </polygon>
                                    <polygon id="Path"
                                        points="17.6648101 12.5809114 17.9571646 13.4814177 18.9038481 13.4814177 18.1379747 14.0377215 18.4306835 14.9376709 17.6648101 14.3815696 16.8988861 14.9376709 17.191443 14.0377215 16.425519 13.4814177 17.3722532 13.4814177">
                                    </polygon>
                                    <polygon id="Path"
                                        points="2.01291139 4.64921519 2.30526582 5.54936709 3.25179747 5.54936709 2.48607595 6.10587342 2.77843038 7.00602532 2.01291139 6.44972152 1.24703797 7.00602532 1.5395443 6.10587342 0.773822785 5.54936709 1.72055696 5.54936709">
                                    </polygon>
                                    <polygon id="Path"
                                        points="18.3265316 8.43194937 18.6188861 9.33210127 19.5656203 9.33210127 18.7997468 9.88840506 19.0922532 10.7887595 18.3265316 10.2326582 17.5606582 10.7887595 17.8533671 9.88840506 17.0872911 9.33210127 18.0338228 9.33210127">
                                    </polygon>
                                    <polygon id="Path"
                                        points="1.28962025 8.43194937 1.58197468 9.33210127 2.52850633 9.33210127 1.76263291 9.88840506 2.05534177 10.7887595 1.28962025 10.2326582 0.523696203 10.7887595 0.816253165 9.88840506 0.0503797468 9.33210127 0.997063291 9.33210127">
                                    </polygon>
                                    <polygon id="Path"
                                        points="1.91027848 12.5809114 2.20263291 13.4814177 3.14916456 13.4814177 2.38349367 14.0377215 2.67579747 14.9376709 1.91027848 14.3815696 1.14440506 14.9376709 1.43691139 14.0377215 0.671037975 13.4814177 1.61777215 13.4814177">
                                    </polygon>
                                    <polygon id="Path"
                                        points="14.5443544 15.8541266 14.8367089 16.7542785 15.783443 16.7542785 15.0173671 17.3109367 15.3100759 18.2110886 14.5443544 17.6547848 13.7782785 18.2110886 14.071038 17.3109367 13.3051139 16.7542785 14.2518481 16.7542785">
                                    </polygon>
                                    <polygon id="Path"
                                        points="5.23068354 1.50987342 5.52298734 2.41022785 6.46972152 2.41022785 5.7038481 2.96688608 5.99655696 3.86703797 5.23068354 3.31037975 4.46496203 3.86703797 4.75746835 2.96688608 3.99159494 2.41022785 4.93812658 2.41022785">
                                    </polygon>
                                    <polygon id="Path"
                                        points="4.88531646 15.796557 5.17782278 16.6971139 6.12455696 16.6971139 5.35868354 17.2532152 5.65118987 18.1533671 4.88531646 17.5974177 4.11959494 18.1533671 4.41210127 17.2532152 3.64622785 16.6971139 4.59275949 16.6971139">
                                    </polygon>
                                </g>
                            </g>
                        </g>
                    </g>
                </g>
            </g>
        </g>
    </g>
</svg>