<svg width="24px" height="24px" viewBox="0 0 24 24"
    xmlns="http://www.w3.org/2000/svg" xmlns:xlink="http://www.w3.org/1999/xlink">
    <g id="Design" stroke="none" stroke-width="1" fill="none" fill-rule="evenodd">
        <g id="Exchange-form-specification" transform="translate(-944.000000, -983.000000)">
            <g id="Exchange-form-Copy-4" transform="translate(598.000000, 967.000000)">
                <g id="Selector" transform="translate(294.000000, 16.000000)">
                    <g id="USD">
                        <g id="Icon/Currency/RUB-2" transform="translate(52.000000, 0.000000)">
                            <g id="RUB">
                                <path
                                    d="M23.4020939,15.751029 C21.8270976,20.5413927 17.3174493,24 12,24 C6.68255071,24 2.17290244,20.5413927 0.597906101,15.751029 Z"
                                    id="Combined-Shape" fill="#F1002C"></path>
                                <path
                                    d="M23.4020939,8.24897096 C23.7900984,9.42908973 24,10.6900323 24,12 C24,13.3096556 23.7901984,14.5703095 23.4023712,15.7501856 L0.597628828,15.7501856 C0.209801587,14.5703095 0,13.3096556 0,12 C0,10.6900323 0.209901585,9.42908973 0.597906101,8.24897096 Z"
                                    id="Combined-Shape" fill="#0052B4"></path>
                                <path
                                    d="M12,0 C17.3178187,0 21.8277242,3.45908787 23.4024221,8.24996939 L0.597577883,8.24996939 C2.17227584,3.45908787 6.68218129,0 12,0 Z"
                                    id="Combined-Shape" fill="#F0F0F0"></path>
                            </g>
                        </g>
                    </g>
                </g>
            </g>
        </g>
    </g>
</svg>