<svg xmlns="http://www.w3.org/2000/svg" width="24px" height="24px" fill="none"
    viewBox="0 0 24 24">
    <path fill="#26A17B"
        d="M10.667 24c5.89 0 10.666-4.776 10.666-10.667S16.558 2.666 10.667 2.666 0 7.442 0 13.333c0 5.89 4.776 10.666 10.667 10.666Z">
    </path>
    <path fill="#fff" fill-rule="evenodd"
        d="M11.947 14.255v-.001a20.41 20.41 0 0 1-1.294.028c-.674 0-1.148-.02-1.314-.028v.002c-2.592-.114-4.527-.566-4.527-1.106 0-.54 1.935-.99 4.527-1.106v1.762c.169.012.654.04 1.325.04a15.3 15.3 0 0 0 1.283-.04v-1.761c2.587.115 4.517.567 4.517 1.105 0 .54-1.93.99-4.517 1.105Zm0-2.393v-1.578h3.61V7.88H5.729v2.405h3.61v1.577c-2.934.135-5.14.716-5.14 1.412s2.206 1.277 5.14 1.412v5.055h2.608v-5.056c2.929-.135 5.13-.716 5.13-1.411 0-.695-2.201-1.276-5.13-1.411Z"
        clip-rule="evenodd"></path>
    <g clip-path="url(#a)">
        <path fill="#627EEA" d="M19.556 8.887a4.444 4.444 0 1 0 0-8.889 4.444 4.444 0 0 0 0 8.889Z">
        </path>
        <path fill="#fff" fill-opacity="0.602" d="M19.693 1.11v2.463l2.083.93-2.083-3.394Z"></path>
        <path fill="#fff" d="m19.694 1.11-2.083 3.394 2.083-.93V1.108Z"></path>
        <path fill="#fff" fill-opacity="0.602" d="M19.693 6.1v1.674l2.084-2.883L19.693 6.1Z"></path>
        <path fill="#fff" d="M19.694 7.774V6.099l-2.083-1.208 2.083 2.883Z"></path>
        <path fill="#fff" fill-opacity="0.2" d="m19.693 5.713 2.083-1.209-2.083-.93v2.14Z"></path>
        <path fill="#fff" fill-opacity="0.602" d="m17.611 4.504 2.083 1.21v-2.14l-2.083.93Z"></path>
    </g>
    <defs>
        <clipPath id="a">
            <path fill="#fff" d="M15.111-.002h8.89v8.889h-8.89z"></path>
        </clipPath>
    </defs>
</svg>