<svg xmlns="http://www.w3.org/2000/svg" width="24px" height="24px" fill="none"
    viewBox="0 0 24 24">
    <path fill="#26A17B"
        d="M10.667 24c5.89 0 10.666-4.776 10.666-10.667S16.558 2.666 10.667 2.666 0 7.442 0 13.333c0 5.89 4.776 10.666 10.667 10.666Z">
    </path>
    <path fill="#fff" fill-rule="evenodd"
        d="M11.947 14.255v-.001a20.41 20.41 0 0 1-1.294.028c-.674 0-1.148-.02-1.314-.028v.002c-2.592-.114-4.527-.566-4.527-1.106 0-.54 1.935-.99 4.527-1.106v1.762c.169.012.654.04 1.325.04a15.3 15.3 0 0 0 1.283-.04v-1.761c2.587.115 4.517.567 4.517 1.105 0 .54-1.93.99-4.517 1.105Zm0-2.393v-1.578h3.61V7.88H5.729v2.405h3.61v1.577c-2.934.135-5.14.716-5.14 1.412s2.206 1.277 5.14 1.412v5.055h2.608v-5.056c2.929-.135 5.13-.716 5.13-1.411 0-.695-2.201-1.276-5.13-1.411Z"
        clip-rule="evenodd"></path>
    <g clip-path="url(#a)">
        <path fill="#FF060A"
            d="M23.868 5.515a4.446 4.446 0 0 1-5.387 3.24 4.445 4.445 0 0 1-3.237-5.385 4.44 4.44 0 0 1 5.38-3.24 4.441 4.441 0 0 1 3.244 5.385Z">
        </path>
        <path fill="#fff"
            d="M22.204 3.838c-.26-.24-.62-.608-.914-.868l-.017-.012a.331.331 0 0 0-.096-.054c-.708-.132-4-.748-4.065-.74a.121.121 0 0 0-.05.02l-.016.012A.194.194 0 0 0 17 2.27l-.004.011v.072c.37 1.032 1.834 4.413 2.123 5.206.017.054.05.156.111.162h.014c.033 0 .174-.186.174-.186s2.514-3.049 2.768-3.373a.822.822 0 0 0 .087-.129.208.208 0 0 0-.069-.194Zm-2.141.355 1.073-.89.63.58-1.703.31Zm-.417-.058L17.8 2.62l2.989.55-1.142.964Zm.167.396 1.89-.304-2.16 2.604.27-2.3Zm-2.265-1.76 1.944 1.65-.282 2.411-1.662-4.06Z">
        </path>
    </g>
    <defs>
        <clipPath id="a">
            <path fill="#fff" d="M15.111-.002h8.89v8.889h-8.89z"></path>
        </clipPath>
    </defs>
</svg>