<svg width="24px" height="24px" viewBox="0 0 24 24" xmlns="http://www.w3.org/2000/svg"
    xmlns:xlink="http://www.w3.org/1999/xlink">
    <g id="Design" stroke="none" stroke-width="1" fill="none" fill-rule="evenodd">
        <g id="Exchange-form-specification" transform="translate(-992.000000, -987.000000)">
            <g id="Exchange-form-Copy-4" transform="translate(598.000000, 967.000000)">
                <g id="Selector" transform="translate(294.000000, 20.000000)">
                    <g id="USD">
                        <g id="Icon/Currency/USD-2" transform="translate(100.000000, 0.000000)">
                            <g id="USD">
                                <circle id="Oval" fill="#F0F0F0" cx="12" cy="12" r="12"></circle>
                                <path
                                    d="M19.9379362,20.9995913 C17.822479,22.8669249 15.0435615,24 12,24 C8.95643855,24 6.17752096,22.8669249 4.06206382,20.9995913 Z M23.621966,14.9999282 C23.3480253,16.06429 22.9317274,17.0715027 22.3945794,18.0000592 L1.6054206,18.0000592 C1.06827256,17.0715027 0.651974717,16.06429 0.378033988,14.9999282 Z M23.6217496,8.99923094 C23.8686708,9.95832226 24,10.9638243 24,12 L24,12 L12,12 L12,9 Z M19.935949,2.99865497 C20.9082841,3.85656435 21.740536,4.86956085 22.3940009,5.99894078 L12,6 L12,3 Z"
                                    id="Combined-Shape" fill="#FF0000"></path>
                                <path
                                    d="M5.558625,1.87396875 L6.65217188,1.87396875 L5.63498438,2.61295313 L6.02353125,3.8086875 L5.00639063,3.06970313 L3.98925,3.8086875 L4.324875,2.77570312 C3.42928125,3.52171875 2.6443125,4.39575 1.9974375,5.369625 L2.34782813,5.369625 L1.70034375,5.84001563 C1.59946875,6.00829687 1.50271875,6.17925 1.41,6.35273438 L1.7191875,7.30434375 L1.14234375,6.88523437 C0.998953125,7.18903125 0.867796875,7.49967187 0.74990625,7.81678125 L1.09054688,8.86528125 L2.34782813,8.86528125 L1.33064063,9.60426562 L1.7191875,10.8 L0.702046875,10.0610156 L0.092765625,10.5037031 C0.03178125,10.9939219 0,11.4932344 0,12 L12,12 C12,5.372625 12,4.5913125 12,0 C9.6294375,0 7.41960938,0.68765625 5.558625,1.87396875 Z M6.02353125,10.8 L5.00639062,10.0610156 L3.98925,10.8 L4.37779687,9.60426563 L3.36060937,8.86528125 L4.61789062,8.86528125 L5.00639062,7.66954687 L5.39489062,8.86528125 L6.65217187,8.86528125 L5.63498437,9.60426563 L6.02353125,10.8 Z M5.63498437,6.10860938 L6.02353125,7.30434375 L5.00639062,6.56535938 L3.98925,7.30434375 L4.37779687,6.10860938 L3.36060937,5.369625 L4.61789062,5.369625 L5.00639062,4.17389063 L5.39489062,5.369625 L6.65217187,5.369625 L5.63498437,6.10860938 Z M10.327875,10.8 L9.31073437,10.0610156 L8.29359375,10.8 L8.68214062,9.60426563 L7.66495312,8.86528125 L8.92223437,8.86528125 L9.31073437,7.66954687 L9.69923437,8.86528125 L10.9565156,8.86528125 L9.93932812,9.60426563 L10.327875,10.8 Z M9.93932812,6.10860938 L10.327875,7.30434375 L9.31073437,6.56535938 L8.29359375,7.30434375 L8.68214062,6.10860938 L7.66495312,5.369625 L8.92223437,5.369625 L9.31073437,4.17389063 L9.69923437,5.369625 L10.9565156,5.369625 L9.93932812,6.10860938 Z M9.93932812,2.61295313 L10.327875,3.8086875 L9.31073437,3.06970313 L8.29359375,3.8086875 L8.68214062,2.61295312 L7.66495312,1.87396875 L8.92223437,1.87396875 L9.31073437,0.678234375 L9.69923437,1.87396875 L10.9565156,1.87396875 L9.93932812,2.61295313 Z"
                                    id="Shape" fill="#0052B4" fill-rule="nonzero"></path>
                            </g>
                        </g>
                    </g>
                </g>
            </g>
        </g>
    </g>
</svg>