<svg xmlns="http://www.w3.org/2000/svg" width="24px" height="24px"
    viewBox="0 0 200.000000 200.000000" preserveAspectRatio="xMidYMid meet">
    <g transform="translate(0.000000,200.000000) scale(0.100000,-0.100000)" fill="#26A17B"
        stroke="none">
        <path
            d="M890 1989 c-160 -19 -342 -88 -474 -183 -84 -60 -202 -186 -258 -276 -251 -403 -187 -919 154 -1246 192 -184 421 -276 688 -276 277 0 504 94 701 291 196 196 291 423 291 696 0 266 -89 494 -266 682 -171 182 -378 284 -629 312 -106 12 -100 12 -207 0z m552 -501 c27 -21 258 -424 258 -450 0 -18 -50 -73 -197 -218 -505 -495 -479 -472 -507 -468 -38 5 -696 651 -696 684 0 14 19 55 42 92 155 250 213 339 230 355 19 16 54 17 437 17 319 0 421 -3 433 -12z">
        </path>
        <path
            d="M700 1260 l0 -49 113 -3 112 -3 3 -42 c2 -24 -1 -43 -6 -43 -47 0 -187 -26 -224 -42 -39 -17 -48 -25 -48 -45 0 -20 3 -24 18 -18 36 16 149 42 205 48 l57 6 0 -45 0 -44 70 0 70 0 0 45 0 46 53 -6 c127 -15 210 -40 229 -69 4 -6 8 4 8 21 0 23 -7 37 -23 47 -28 19 -123 43 -205 51 l-63 7 3 42 3 41 113 3 112 3 0 49 0 50 -300 0 -300 0 0 -50z">
        </path>
        <path
            d="M650 965 c0 -43 57 -64 243 -91 l37 -5 0 -94 0 -95 70 0 70 0 0 95 0 94 33 5 c17 3 56 8 85 11 76 8 160 42 167 66 4 11 5 23 2 25 -3 3 -31 -4 -64 -15 -159 -53 -529 -45 -619 14 -23 15 -24 14 -24 -10z">
        </path>
    </g>
</svg>