<svg width="53" height="52" viewBox="0 0 53 52" fill="none" xmlns="http://www.w3.org/2000/svg">
<g clip-path="url(#clip0_1_302)">
<path d="M41.7076 6.7373H12.2736C6.85496 6.7373 2.46228 11.13 2.46228 16.5486V42.0581C2.46228 47.4767 6.85496 51.8694 12.2736 51.8694H41.7076C47.1262 51.8694 51.5189 47.4767 51.5189 42.0581V16.5486C51.5189 11.13 47.1262 6.7373 41.7076 6.7373Z" fill="white"/>
<path opacity="0.45" d="M12.9777 14.872C12.9777 14.872 13.6743 18.3801 16.4609 21.1667C12.3556 26.4538 1.35852 21.7266 1.35852 21.7266L3.85899 9.74658L12.9777 14.872Z" fill="#0075FF"/>
<path opacity="0.45" d="M28.2155 35.0251C27.7427 26.3418 17.3054 17.87 3.50928 19.9102C3.50928 19.9102 17.094 20.47 17.094 31.9773V35.0625C17.094 41.0089 18.6241 46.7687 21.4481 51.8568H25.3045C22.7542 45.1764 24.6078 39.0931 28.2155 35.0251Z" fill="#0075FF"/>
<path d="M17.0952 31.9762C17.0952 20.4565 3.51053 19.9092 3.51053 19.9092C7.59091 16.0526 12.9775 14.8708 12.9775 14.8708C15.4407 10.6784 19.9192 7.81717 25.144 7.81717C30.9908 7.81717 37.8827 9.9569 43.4186 15.9532C43.4186 15.9532 38.6416 13.0048 33.5908 12.6814C33.5908 12.6814 45.9067 16.3512 51.5297 31.7523V10.6619C51.5297 5.2433 47.1369 0.850613 41.7183 0.850613H10.2407C4.85407 0.838172 0.5 5.19227 0.5 10.5789V51.8682H21.4492C18.6253 46.7801 17.0952 41.0203 17.0952 35.0738V31.9762Z" fill="#0069FF"/>
<path d="M17.4933 16.2902C17.4933 16.3025 17.4933 16.315 17.4933 16.3275C17.5803 18.181 19.2224 19.6117 21.076 19.649C25.7163 19.7486 26.4004 15.3074 26.4004 15.3074H18.476C17.9411 15.2949 17.4808 15.7428 17.4933 16.2902Z" fill="#0075FF"/>
<path d="M51.5292 37.1404C48.5934 32.0897 42.846 28.8925 36.4145 29.7384C29.8709 30.6092 24.559 35.7844 23.5513 42.3155C23.0164 45.7988 23.6757 49.0955 25.1686 51.8697H44.2269C48.2576 51.8697 51.5292 48.5979 51.5292 44.5672V37.1404Z" fill="#0069FF"/>
<path d="M21.4378 18.256C22.6333 18.256 23.6024 17.2868 23.6024 16.0914C23.6024 14.8959 22.6333 13.9268 21.4378 13.9268C20.2423 13.9268 19.2733 14.8959 19.2733 16.0914C19.2733 17.2868 20.2423 18.256 21.4378 18.256Z" fill="white"/>
</g>
<defs>
<clipPath id="clip0_1_302">
<rect width="52" height="51.0189" fill="white" transform="translate(0.5 0.850586)"/>
</clipPath>
</defs>
</svg>
