<svg width="231" height="45" viewBox="0 0 231 45" fill="none" xmlns="http://www.w3.org/2000/svg">
<g clip-path="url(#clip0_1_108)">
<g clip-path="url(#clip1_1_108)">
<mask id="mask0_1_108" style="mask-type:luminance" maskUnits="userSpaceOnUse" x="0" y="0" width="231" height="45">
<path d="M0.5 0.000218226H230.641V44.9998H0.5V0.000218226Z" fill="white"/>
</mask>
<g mask="url(#mask0_1_108)">
<path d="M214.811 10.4388C219.266 10.7243 223.483 13.3278 223.483 13.3278C215.629 5.08774 202.629 2.76191 196.625 12.3764C196.625 12.3764 191.868 13.4229 188.27 16.8211C206.766 18.9476 195.315 32.7123 204.106 44.9998H207.092C205.881 42.8395 205.29 40.3866 205.384 37.9117C205.647 30.8069 211.531 25.0367 218.639 24.9094C223.778 24.8143 228.272 27.5927 230.639 31.7365V27.2507C225.683 13.6775 214.811 10.4388 214.811 10.4388Z" fill="white"/>
<path d="M206.188 12.2324C206.283 12.4857 206.346 12.7557 206.346 13.0424C206.346 14.2882 205.338 15.2962 204.091 15.2962C203.722 15.2971 203.359 15.2075 203.034 15.0354C202.708 14.8633 202.429 14.6139 202.222 14.309C202.015 14.0042 201.886 13.6532 201.846 13.2869C201.807 12.9206 201.857 12.5501 201.994 12.208C201.391 12.343 200.851 12.5422 200.421 12.8122C200.406 13.0025 200.406 13.2005 200.438 13.3985C200.724 15.3361 202.583 16.7966 204.591 16.6295C206.601 16.4546 208.363 14.9465 208.53 13.2867C208.538 13.1947 208.538 13.1022 208.53 13.0102C207.895 12.685 207.093 12.415 206.188 12.2324Z" fill="#0069FF"/>
<path opacity="0.35" d="M188.27 16.8198C192.543 17.3122 195.212 18.423 196.91 19.9955C197.959 19.4722 199.135 18.6622 199.698 17.9473C197.245 15.4942 196.625 12.3751 196.625 12.3751C196.617 12.3751 191.868 13.4152 188.27 16.8198Z" fill="#0069FF"/>
<path opacity="0.35" d="M207.084 44.9998C205.873 42.8395 205.282 40.3866 205.377 37.9117C205.512 34.1806 207.204 30.8146 209.808 28.4489C208.244 21.4406 199.524 15.1612 188.263 16.8211C206.759 18.9476 195.307 32.7123 204.099 44.9998H207.084Z" fill="#0069FF"/>
<path d="M230.641 41.4037C230.637 42.3588 230.256 43.2736 229.58 43.9488C228.904 44.6239 227.989 45.0045 227.034 45.0075H207.085C205.874 42.8472 205.283 40.3943 205.378 37.9194C205.64 30.8146 211.525 25.0444 218.632 24.9171C221.061 24.871 223.458 25.4807 225.57 26.6822C227.682 27.8837 229.43 29.6324 230.632 31.7442V41.4037H230.641ZM188.272 16.8211C191.869 13.4139 196.626 12.3751 196.626 12.3751C202.63 2.76319 215.63 5.08774 223.484 13.3278C223.484 13.3278 219.267 10.732 214.812 10.4388C214.812 10.4388 225.684 13.6775 230.641 27.2584V3.60404C230.637 2.64895 230.256 1.73408 229.58 1.05897C228.904 0.38385 227.989 0.00326563 227.034 0.000218226L189.217 0.000218226C188.262 0.0032676 187.347 0.383893 186.671 1.05904C185.996 1.7342 185.615 2.64907 185.611 3.60404V41.4037C185.615 42.3586 185.996 43.2735 186.671 43.9487C187.347 44.6238 188.262 45.0044 189.217 45.0075H204.108C195.316 32.7123 206.768 18.9476 188.272 16.8211Z" fill="#2A82FF"/>
<path d="M144.083 24.1393C145.14 23.814 145.989 23.265 146.633 22.4961C147.276 21.7337 147.601 20.7502 147.601 19.5429C147.601 18.0425 147.053 16.8918 145.958 16.0908C144.861 15.2885 143.353 14.8835 141.415 14.8835H134.331V30.1165H137.801V24.4723H140.701L145.068 30.1165H148.865L144.083 24.1393ZM140.041 23.4167H137.801V15.9236H140.026C142.686 15.9236 144.02 17.1862 144.02 19.7023C144.011 22.1709 142.686 23.418 140.041 23.418V23.4167ZM5.74181 30.1165L0.5 14.8835H4.08968L8.42635 28.0761L13.087 14.8848H16.2961L21.0455 28.0529L25.2626 14.8835H26.9057L21.7758 30.1165H18.4805L13.7299 17.1386L9.04477 30.1165H5.74181ZM32.5191 30.1165V14.8835H35.9905V21.726H43.8436V14.8835H47.315V30.1165H43.8436V22.806H35.9905V30.1165H32.5191ZM55.2259 30.1165V14.8835H58.696V30.1165H55.2259ZM69.4805 30.1165V16.0111H64.0574V14.8835H78.3994V16.0111H72.9519V30.1152L69.4805 30.1165ZM83.7286 30.1165V14.8835H95.2292V16.0111H87.2V21.726H94.5542V22.806H87.2V28.9902H95.8721V30.1165H83.7286ZM102.208 14.8835H109.498C111.414 14.8835 112.89 15.2332 113.939 15.9236C114.987 16.6218 115.503 17.5346 115.503 18.6776C115.503 19.5197 115.241 20.2256 114.709 20.79C114.184 21.3532 113.526 21.798 112.747 22.1233C113.882 22.3689 114.772 22.8137 115.431 23.4321C116.082 24.0596 116.416 24.8464 116.416 25.7978C116.416 27.171 115.844 28.2355 114.701 28.9812C113.557 29.7269 111.834 30.1088 109.53 30.1088H102.208V14.8835ZM109.134 21.7749C109.546 21.7749 109.975 21.6784 110.437 21.4959C110.897 21.3056 111.294 20.9957 111.619 20.5509C111.945 20.1073 112.121 19.5275 112.121 18.8049C112.121 17.8535 111.754 17.1386 111.032 16.6449C110.309 16.1615 109.348 15.9236 108.157 15.9236H105.663V21.7813H109.134V21.7736V21.7749ZM108.196 29.0841C111.381 29.0841 112.978 27.9655 112.978 25.7348C112.978 24.7346 112.636 23.9888 111.954 23.4887C111.27 22.9873 110.372 22.743 109.254 22.743H105.679V29.0931H108.197L108.196 29.0841ZM122.943 30.1165V14.8835H126.414V30.1165H122.943ZM169.053 16.8686C167.536 15.5508 165.416 14.8912 162.676 14.8912H154.98V30.1242H162.676C165.447 30.1242 167.583 29.4736 169.076 28.1789C170.57 26.8855 171.316 25.0123 171.316 22.5591C171.323 20.0829 170.561 18.1865 169.053 16.8686ZM161.461 28.9889H158.451V16.0111H161.429C165.591 16.0111 167.671 18.1929 167.671 22.5514C167.671 26.8457 165.606 28.9889 161.461 28.9889Z" fill="white"/>
</g>
</g>
</g>
<defs>
<clipPath id="clip0_1_108">
<rect width="230.141" height="45" fill="white" transform="translate(0.5)"/>
</clipPath>
<clipPath id="clip1_1_108">
<rect width="230.141" height="44.9996" fill="white" transform="translate(0.5 0.000218226)"/>
</clipPath>
</defs>
</svg>
