<svg width="39" height="34" viewBox="0 0 39 34" fill="none" xmlns="http://www.w3.org/2000/svg">
<g clip-path="url(#clip0_1_234)">
<g clip-path="url(#clip1_1_234)">
<path d="M37.7995 6.50849V6.51652V19.2857C37.7995 22.3717 35.2106 24.912 31.9727 24.912H14.75H14.4363L14.2275 25.1462L7.9396 32.1981C7.93485 32.1867 7.93018 32.1749 7.92557 32.1628C7.83441 31.9233 7.78999 31.586 7.78939 31.1527C7.7888 30.7256 7.82972 30.263 7.87462 29.7866C7.87742 29.7569 7.88025 29.727 7.88309 29.697C7.92403 29.2645 7.967 28.8107 7.967 28.4186V25.612V24.912H7.267H7.02675C3.78885 24.912 1.19995 22.3717 1.19995 19.2857V6.51652C1.19995 3.43044 3.78885 0.890137 7.02675 0.890137H32.0128C35.2526 0.890137 37.8348 3.43036 37.7995 6.50849Z" stroke="#0069FF" stroke-width="1.4"/>
<path d="M12 15.1899C13.3807 15.1899 14.5 14.0707 14.5 12.6899C14.5 11.3092 13.3807 10.1899 12 10.1899C10.6193 10.1899 9.5 11.3092 9.5 12.6899C9.5 14.0707 10.6193 15.1899 12 15.1899Z" fill="#0069FF"/>
<path d="M20 15.1899C21.3807 15.1899 22.5 14.0707 22.5 12.6899C22.5 11.3092 21.3807 10.1899 20 10.1899C18.6193 10.1899 17.5 11.3092 17.5 12.6899C17.5 14.0707 18.6193 15.1899 20 15.1899Z" fill="#67A6FF"/>
<path d="M28 15.1899C29.3807 15.1899 30.5 14.0707 30.5 12.6899C30.5 11.3092 29.3807 10.1899 28 10.1899C26.6193 10.1899 25.5 11.3092 25.5 12.6899C25.5 14.0707 26.6193 15.1899 28 15.1899Z" fill="#9DBCED"/>
</g>
</g>
<defs>
<clipPath id="clip0_1_234">
<rect width="38" height="33" fill="white" transform="translate(0.5 0.189941)"/>
</clipPath>
<clipPath id="clip1_1_234">
<rect width="38" height="33" fill="white" transform="translate(0.5 0.189941)"/>
</clipPath>
</defs>
</svg>
