<svg width="16" height="16" viewBox="0 0 16 16" fill="none" xmlns="http://www.w3.org/2000/svg">
<g clip-path="url(#clip0_1_406)">
<path d="M8 15.5C12.1421 15.5 15.5 12.1421 15.5 8C15.5 3.85786 12.1421 0.5 8 0.5C3.85786 0.5 0.5 3.85786 0.5 8C0.5 12.1421 3.85786 15.5 8 15.5Z" fill="#ECECEC"/>
<path d="M7.36077 9.45455H8.21305V9.41193C8.22725 8.53125 8.45452 8.14773 9.07952 7.7571C9.70452 7.37713 10.0738 6.83026 10.0738 6.04545C10.0738 4.9375 9.26418 4.12784 8.01418 4.12784C6.86362 4.12784 5.95097 4.83807 5.89771 6.04545H6.79259C6.84586 5.20739 7.4318 4.86648 8.01418 4.86648C8.6818 4.86648 9.22157 5.30682 9.22157 6.00284C9.22157 6.56747 8.89842 6.9723 8.48293 7.22443C7.78691 7.64702 7.37143 8.05895 7.36077 9.41193V9.45455ZM7.81532 11.5568C8.16688 11.5568 8.45452 11.2692 8.45452 10.9176C8.45452 10.5661 8.16688 10.2784 7.81532 10.2784C7.46376 10.2784 7.17612 10.5661 7.17612 10.9176C7.17612 11.2692 7.46376 11.5568 7.81532 11.5568Z" fill="#555960"/>
</g>
<defs>
<clipPath id="clip0_1_406">
<rect width="15" height="15" fill="white" transform="translate(0.5 0.5)"/>
</clipPath>
</defs>
</svg>
